<?xml version="1.0" encoding="UTF-8"?>
<svg id="Layer_2" data-name="Layer 2" xmlns="http://www.w3.org/2000/svg" viewBox="0 0 414.12 103.72">
  <g id="Layer_1-2" data-name="Layer 1">
    <g>
      <path d="M304.27,103.72c-8.89-3.52-16.54-9.3-17.87-19.4-1.69-12.79-1.56-50.3-.09-63.31,1.27-11.23,10.65-18.65,21.45-20.3l81.6.21c7.03,3.18,11.56,10.09,7.15,17.57-1.02,1.73-6.07,5.99-7.94,5.99h-78.31v55.47h69.33c2.64-3.65,1.92-11.37.56-15.42-2.7-1.87-36.9.66-44.23-.66-13.83-2.5-12.52-21.56.86-23.45,9.19-1.3,45.67-.95,53.57,2.09,5.92,2.28,12.35,9.08,13.43,15.39.92,5.36.92,22.89,0,28.25-1.44,8.43-10.07,14.92-17.72,17.57h-81.8Z"/>
      <path d="M164.6,103.72c-4.98-3.76-7.31-5.94-7.97-12.4-1.82-17.87-1.63-55.25-.05-73.32,1.24-14.15,12.86-21.5,25.93-14.78,17.13,15,32.45,31.85,48.92,47.51,5.01,4.76,12.95,13.02,17.96,16.83,1.01.76,1.26,1.91,3,1.48V9.13c0-.25,2.12-3.89,2.57-4.39,7.12-8.03,19.52-3.58,21.29,6.46-1.86,24.7,2.86,53.88-.02,78.05-.96,8.05-5.1,10.95-11.86,14.47h-8.98l-5.5-2.96-68.81-66.38c-.63,17.87,2.47,39.29.38,56.85-.8,6.68-3.22,9.25-8.87,12.49h-7.98Z"/>
      <path d="M15.96,103.72h-7.98c-3.85-2.24-5.73-4.1-7.98-7.92V8.64C2.49,4.63,5.43,1.29,10.45.69c25.83,1.7,54.37-2.18,79.87,0,23.94,2.04,24.56,25.21,22.41,44.11-.8,7.08-10.28,19.31-17.46,19.31H25.44l-1.5,1.49v29.71c0,2.73-5.62,7.09-7.98,8.42ZM88.79,24.48H23.94v16.84h64.84v-16.84Z"/>
      <path d="M138.67,103.72h-7.98c-3.8-2.95-7.49-6.21-8-11.37,2.04-25.25-2.66-54.51.02-79.26,1.76-16.32,22.47-15.56,23.97-2.99-2.35,26.57,3.06,58.29,0,84.24-.66,5.57-4.04,6.5-8,9.39Z"/>
      <path d="M402.35,4.95c.1-.24,3.04-4.03,3.28-4.13,5.11-1.88,9.74,2.83,8.16,8.09-2.1,7-14.61,3.4-11.45-3.97Z"/>
    </g>
  </g>
</svg>