<?xml version="1.0" encoding="UTF-8"?>
<svg id="Layer_2" data-name="Layer 2" xmlns="http://www.w3.org/2000/svg" viewBox="0 0 1063.33 410.63">
  <g id="Layer_1-2" data-name="Layer 1">
    <g>
      <path d="M189.82.48c31.66-2.22,64.81,3.19,93.47,16.8,31.28,14.86,54.38,39.73,76.6,65.24.08,2.25-1.07,3.92-2.48,5.5-3.7,4.14-19.23,18.52-23.57,21.36-17.51,11.44-36.14-17.67-47.89-27.9-46.61-40.55-117.21-40.38-163.87,0-29.45,25.49-60.65,57.96-68.46,97.24-12.95,65.12,20.93,106.98,66.46,147.19,48.7,43.02,116.18,46.75,165.87,2.99,8.15-7.17,20.55-23.67,29.98-26.93,20.47-7.08,28.71,11.51,42.84,22.07,1.78,2.44.57,3.77-.91,5.84-6.39,8.94-29.36,30.37-38.43,38.44-55.67,49.52-137.51,55.14-202.01,19.1-27.99-15.64-75.47-62.19-92.05-89.65C-14.66,231.5-6.64,142.76,44.64,84.97,84.35,40.22,127.27,4.87,189.82.48Z"/>
      <path d="M219.78,264.35c.8-1.39.29-4.02-.74-5.35l-40.01-39.85c-14.05-19.46,12.13-32.36,22.42-45.44l3.83-.8,89.69,90.19-1,3c-15.05,13.74-27.87,30.8-45.7,41.15-35.74,20.75-74.22,14.79-104.73-11.75-39.82-34.64-73.64-76.94-44.6-131.38,12.69-23.79,50.95-61.32,76.58-70.17,52.15-18.02,89.08,14.87,120.44,51.45.26,1.75-.14,2.56-.99,3.99-1.11,1.89-16.13,16.5-18.56,18.37-20.09,15.47-30.97-5.17-43.96-15.91-30.98-25.6-55.3-4.1-77.42,19.4-17.77,18.88-21.78,40.49-4.48,61.39,10.91,13.18,31.59,34.35,49.08,35.77,3.68.3,18.43-1.07,20.15-4.06Z"/>
      <path d="M815.31,235.74c-2.61-1.51-6.36,4.32-8.4,5.84-6.62,4.93-15.13,10.15-23.72,8.76-9.72-1.57-13.31-14.19-17.27-14.75-7.07-1.01-14.76,14.87-25.04,15.93-29.61,3.06-17.32-43.13-12.64-58.56,7.12-23.46,20.76-47.43,30.72-70.08,1.84-4.19,1.56-10.09,6.76-12.2,10.7-4.33,19.28,6.55,17.66,16.64-.36,2.26-2.99,7.37-4.07,9.89-9.83,22.79-27.62,48.07-32.37,72.42-2.19,11.2-.88,18.46,9.5,7.5,13.46-14.2,23.26-34.2,36.97-48.88,8.94-9.57,17.81-18.67,31.99-13.94,8.55,2.85,8.39,8.55,13.5,13.46,4.12,3.96,13.47,5.46,13.52,12.46s-13.14,23.17-13.82,33.21c-.45,6.61,4.92,7.42,9.8,3.74,22.92-17.31,19.64-37.05,33.11-56.72,4.39-6.4,12.37-8.15,18.35-2.69,4.26,3.88,2.75,14.55,4.98,15,3.62.73,16.77-18.38,27.99-19,14.2-.79,14.7,16.57,11.51,26.53-2.45,7.64-17.24,33.69-14.33,40.06,3.38,7.39,12.1-4.6,14.67-7.79,13.54-16.79,23.85-46.85,43.35-56.48,10.69-5.28,22.14-6.66,31.69,1.69,7.57-12.22,12.9-26.29,20.31-38.56,4.78-7.91,8.61-16.04,18.65-8.3,7.03,5.42,4.57,11.11,2.25,18.2-7.97,24.35-24.48,48.42-32.99,73.81-1.82,5.42-8.4,20.98,3.31,17.28,9.25-2.92,16.25-23.28,19.6-24.39,4.3-1.43,6.3,3.84,6.42,7.37.32,9.72-16.33,32.88-24.15,38.83-3.9,2.96-12.57,7.59-17.41,7.57-10.95-.04-12.44-16.03-16.97-16-3.46.02-11.23,14.83-20.96,16.02-9.02,1.1-13.74-1.05-19.49-7.52-2.88-3.24-3.92-8.59-9.54-8.54-3.87.04-8.69,8.72-12.44,11.57-7.12,5.41-21.94,7.56-27.99-.02-12.67-15.87,1.88-38.01,6.84-54.07l-.81-1.82c-6.85-4.23-20.63,13.85-23.82,19.18-2.8,4.67-5.11,10.04-6.69,15.27-3.39,11.21-1.52,35.86-20.54,26.49-4.65-2.29-6.45-10.47-9.39-10.55-2.53-.07-10.69,7.23-14.29,8.73-13.57,5.65-18.98-.95-24.33-12.58ZM819.19,173.96c-9.05,1.37-21.9,23.79-24.91,32.06-4.51,12.38-3,29.57,12.19,15.17,7.41-7.03,16-26,19-35.9,1.91-6.29,3.12-12.75-6.28-11.33ZM1010,175.01c-2.2-2.55-8.83-.95-11.64.35-7.92,3.68-20.15,26.7-21.64,35.26-.7,4-1.84,10.57,2.19,12.91,7.85,4.56,18.37-11.26,21.76-16.92,3.31-5.52,13.77-26.46,9.32-31.59Z"/>
      <path d="M583.96,156.12c5.5-3.58,10.97-3.15,16.17.69,11.11,8.22-1.1,22.75-4.96,31.95-2.22,5.3-12.51,31.05-1.98,31.95,6.75.58,20.31-24.69,22.15-30.76,2.43-8.04,1.25-16.35,4.52-24.42,7.03-17.35,24.62-12.66,22.72,7.73-.47,5.09-8.46,18.3.33,18.18,11.97-.16,17.21-13.98,24.15-21.68,5.29-5.87,12.37-12.43,19.96-14.99,28.64-9.66,38.83,17.19,24.93,38.86-6.39,9.96-13.74,14.31-25.15,16.79-8.76,1.9-16.39-2.1-14.17,11.67,2.79,17.28,27.48-2.72,32.41-9.4,4.3,2.86,2,9.39.78,13.73-4.95,17.62-23.88,26.38-41.06,21.49-16.74-4.77-17.8-22.66-18.6-37.29-5.32-1.78-13.49-1.95-17.96,2.14-10.26,9.4-15.73,27.64-30.03,34.86-12.91,6.52-29.92,3.38-32.24-12.76-4.1-28.59,7.03-53.41,18.03-78.74ZM702.4,174.91c-3.88-6.11-19.95,11.13-21.4,15.77-3.16,10.11,11.16,2.9,15.09-.92,2.66-2.58,8.56-11.32,6.31-14.86Z"/>
      <path d="M464.81,221.62c2.49,1.74,8.86-5.23,10.46-6.94,13.56-14.48,31.81-49.84,48.45-56.37,15.57-6.11,33-1.53,34.85,17.06,1.7,17.08-15.54,36.6-32.37,38.29-8.37.84-16.53-3.5-14.41,9.44,1.04,6.33,7.21,8.53,12.96,7.06,7.4-1.89,16.05-14.13,19.9-15.09,6.4-1.61,1.08,14.22-.09,16.92-11.32,26.14-47.67,27.82-59.36.65-13.03,6.83-22.93,27.89-40.34,15.39-14.39-10.34-6.78-33.97-2.08-47.84,8.34-24.64,24.26-48.03,32.21-70.58,2.37-6.72,2.34-19.34,12.97-18.49,8.48.68,15.31,7.12,12.54,16.03-8.4,24.01-21.67,46.56-30.48,70.32-1.38,3.71-8.35,21.95-5.2,24.16ZM541.58,177.86c-6.57-1.4-9.94,1.92-13.9,6.36s-11.61,16.29.57,12.53c7.22-2.22,14.98-11.39,13.33-18.89Z"/>
      <path d="M418.71,143.93c-6.79-1.99-12.64,2.82-17.42,6.87-14.05,11.9-34.82,42.15-38.78,60.04-5.69,25.73,11.69,24.97,27.33,11.33,9.02-7.87,15.43-23.33,30-19.01,15.94,4.72,1.12,21.94-5.07,28.95-14.38,16.26-44.72,32.2-65.25,18.32-31.67-21.42-4.04-75.79,14.81-97.61,13.22-15.3,58.52-55.71,72.95-22.93,4.03,9.15,4.41,34.52-.65,43.25-3.83,6.6-14.08,9.43-19.88,4.18-9.64-8.74,4.78-28.48,1.95-33.37Z"/>
      <path d="M602.63,312.93c-15.52,11.29-57.55,10.72-67.14-7.78-5.73-11.05,2.19-20.8,12.2-25.12,15.28-6.6,36.22-6.23,50.66,2.26.82.48,1.67-.29,1.27,1.7l-6.5,5.18c-10.33-8.58-44.09-9.61-46.4,6.88-2.17,15.49,21.86,17.4,32.41,16.37,4.96-.48,12.3-1.51,10.5-7.97h-22.98v-7.98h35.97v16.46Z"/>
      <path d="M665.35,275.8c14.85-1.78,45.37,2.14,45.19,22.18-.27,30.49-76.06,30.52-71.85-2.92,1.43-11.39,16.5-18.05,26.66-19.26ZM654.92,307.11c8.61,8.55,39.32,8.5,42.2-6.61,4.14-21.74-40.08-22.01-44.76-7.75-1.6,4.88-1.19,10.63,2.56,14.36Z"/>
      <path d="M896.36,283.5h-39.96v9.98h26.97v7.98h-26.97v17.46c-3.18,3-8.84.92-12.99,1.5v-44.89h51.45l1.34,1.65.16,6.33Z"/>
      <path d="M763.48,275.52v36.91h40.96v7.98h-52.45l-1.5-1.5v-41.9c3.18-3,8.84-.92,12.99-1.5Z"/>
      <path d="M368.85,355.33c2.06,1.51,6.64.92,8.98-.01l-4.5-5.96-2.47,4.97v-9.98c12.97-.97,1.72,5.01,7.48,9.96,5.49-4.5,1.15-14.06-5.76-12.8-6.29,1.15-7.66,10.94-3.73,13.81-.28-.17-1.26.36-2.05-.66-6.18-7.99,3.54-18.29,12-12.76s2.2,18.09-8.29,15.21c-1.19-.33-1.39-1.62-1.66-1.79Z"/>
    </g>
  </g>
</svg>