<?xml version="1.0" encoding="UTF-8"?>
<svg id="Layer_2" data-name="Layer 2" xmlns="http://www.w3.org/2000/svg" viewBox="0 0 2355.07 669.78">
  <g id="Layer_1-2" data-name="Layer 1">
    <g>
      <path d="M1026.56,5.62c-14.24,11.34-41.28,28.78-44.77,28.78-1.74,0-4.94,1.45-6.69,3.2-2.91,2.91-12.21,4.65-70.06,11.63-33.43,4.07-242.44,1.74-281.1-3.2-14.53-1.74-72.97-3.49-130.81-3.78-120.64-.58-137.5,1.45-204.94,23.55-67.44,22.38-117.73,72.09-121.51,120.35-2.33,29.65,19.19,61.05,51.16,75.87,19.48,8.72,95.35,10.76,128.2,3.2,25.29-5.81,53.49-18.6,65.12-29.65s11.34-29.65-.87-41.86c-7.85-7.85-10.17-8.43-22.67-7.27-7.56.58-20.93,3.49-29.65,6.1-34.3,10.47-48.84,13.08-71.22,13.37-29.65,0-42.15-6.4-42.15-20.93,0-32.56,56.4-63.95,136.63-76.74,33.43-5.23,31.98-5.23,273.26,2.91,223.26,7.27,225.29,7.27,271.8,2.91,60.76-5.81,86.92-15.41,115.7-41.86,11.34-10.17,22.38-28.2,22.38-35.76,0-9.3-11.92-30.23-18.9-33.43-9.88-4.36-10.17-4.36-18.9,2.62ZM1270.75,100.38c-5.52,2.62-14.83,6.69-20.06,9.3-13.66,6.4-50.87,43.31-72.09,71.51-53.2,70.93-76.45,136.92-77.62,220.06-.58,27.62-2.03,41.28-4.65,44.48-10.47,12.79-81.98,54.94-123.55,72.97-17.73,7.56-57.56,7.27-72.97-.87-13.95-7.56-16.86-10.76-21.22-24.13-2.33-7.85-2.33-13.08.87-23.26,3.49-11.92,66.57-120.35,76.16-131.1,3.2-3.49,13.08-4.94,45.06-6.69,47.09-2.03,54.36-5.23,63.95-26.16,6.98-15.41,6.98-22.38-.29-30.23-5.52-5.81-9.01-6.4-36.34-6.4-19.19,0-30.52-1.16-30.52-2.91s2.62-8.14,5.81-14.53c4.65-9.01,5.23-12.79,2.62-18.31-4.94-10.76-17.44-16.57-36.05-16.57-14.83,0-17.44.87-25,9.01-4.36,4.65-11.63,15.99-15.7,24.42-4.07,8.72-9.59,17.15-12.5,18.6-2.62,1.45-15.99,3.2-29.65,3.78-13.66.87-27.91,3.2-31.98,4.94-11.34,5.52-18.31,17.15-19.77,33.14-1.74,17.73,2.91,22.38,21.8,22.38,7.85,0,13.37,1.45,14.24,3.78.58,2.03-6.1,14.83-15.12,28.49-9.01,13.37-17.44,27.03-18.9,30.23-17.73,37.5-65.41,93.31-90.41,105.81-6.98,3.49-14.53,7.56-16.86,9.01-7.27,4.07-35.17,11.63-43.31,11.63-16.57,0-32.27-15.7-32.27-32.56,0-11.34,14.24-39.24,40.41-79.36,25.58-38.95,29.94-47.97,28.78-58.14-2.03-18.9-36.34-29.07-54.65-15.99-4.65,3.2-16.86,18.9-27.62,34.88-24.71,36.92-54.94,77.33-65.12,86.34-4.07,3.78-10.76,9.88-14.83,13.66-9.59,8.43-44.48,30.81-61.05,38.66-27.91,13.37-47.38,21.22-52.33,21.22-8.72,0-20.35,11.34-20.35,20.06,0,9.3,18.31,29.36,33.43,36.63,9.3,4.36,11.05,4.07,28.2-1.45,18.9-6.4,56.69-25.58,83.14-42.44,8.43-5.52,15.7-9.88,16.57-9.88.58,0,3.2,3.78,5.81,8.72,6.98,13.66,21.8,28.78,33.43,34.88,6.1,3.2,22.09,7.27,35.76,9.01,48.55,7.27,100-7.27,138.66-38.66,13.08-10.47,18.02-10.17,27.03,1.74,19.77,25.87,56.69,42.44,95.06,42.44,49.13,0,99.13-18.31,172.97-63.37,13.95-8.14,26.74-15.12,28.78-15.12s7.56,5.23,12.21,11.92c31.1,45.06,94.19,70.64,151.45,61.05,27.91-4.36,45.64-10.76,78.2-27.91,13.95-7.27,27.03-13.08,29.36-13.08s10.17,4.36,17.73,9.3c33.72,23.55,54.36,29.94,96.51,29.94,29.65,0,35.76-1.16,54.65-8.43,11.63-4.36,27.91-12.79,36.05-18.02,7.85-5.52,15.7-9.88,17.15-9.88s10.47,5.81,20.06,12.79c25,18.6,38.95,23.26,64.53,21.51,23.55-1.45,47.09-11.05,74.13-29.65,8.43-5.81,16.57-10.47,18.31-10.47s9.3,5.52,16.86,12.5c21.8,20.06,32.27,26.16,54.07,31.1,24.42,5.81,38.37,3.78,64.24-8.72,9.88-4.94,22.38-8.72,27.91-8.72,20.35,0,44.19-5.81,65.12-15.99,11.63-5.52,22.97-10.17,24.71-10.17,2.03,0,10.76,6.69,19.48,14.53,17.44,15.99,26.74,20.64,56.1,29.36,23.55,6.98,39.53,6.98,65.41,0,27.62-7.27,48.26-18.9,63.95-35.47,11.92-12.79,13.08-15.12,13.08-28.78,0-12.79-1.45-16.28-8.43-23.55-11.34-11.34-20.35-10.76-40.41,2.62-23.55,15.7-38.37,20.93-60.76,20.93-24.42,0-36.34-6.69-41.28-23.26-2.91-9.59-2.62-14.24.87-26.16,4.36-15.12,25.29-55.81,32.56-64.24,2.33-2.33,4.07-5.81,4.07-7.56,0-1.45,4.07-8.43,8.72-14.83l8.72-12.21h42.15c47.09,0,112.79-4.65,122.97-8.72,15.41-6.4,24.13-39.83,13.08-50.87-8.72-9.01-18.31-10.17-76.45-10.17-36.63,0-58.43-1.16-59.59-2.91s.29-10.17,3.2-19.19c4.65-14.83,4.65-16.28,0-26.74-5.81-12.79-25-26.74-36.63-26.74-12.5,0-19.48,7.56-33.72,37.21-19.19,39.83-16.86,38.37-51.74,38.37-22.09,0-31.1,1.16-36.05,4.65-15.41,10.76-20.06,37.79-9.01,51.74,4.65,6.1,8.43,7.56,18.31,7.56,6.69,0,14.83,1.74,17.73,4.07,5.23,3.78,4.65,5.23-11.63,32.56-19.77,33.43-38.08,58.43-51.16,69.19-11.92,9.88-29.65,19.19-37.5,19.19-5.23,0-5.81-1.74-5.81-19.19,0-31.98-13.66-77.33-39.24-129.07-6.69-13.66-13.08-28.49-14.24-33.14-8.72-34.3-29.36-47.97-53.78-35.17-8.43,4.07-9.88,7.27-19.48,37.79-7.27,23.55-25.87,66.28-36.92,84.3-20.06,32.56-36.34,55.81-51.74,73.26-22.67,25.29-29.07,30.52-47.09,37.21-11.63,4.36-15.7,4.65-25,1.74-12.79-3.78-15.7-6.4-20.06-20.06-2.62-7.56-2.33-13.37.87-25.87,4.36-16.28,16.86-53.78,23.26-69.19,30.81-73.84,31.69-77.33,21.8-88.08-7.56-8.14-17.15-10.47-34.01-8.43-21.22,2.33-29.07,10.17-39.83,38.95-15.41,40.99-18.9,50.58-34.88,90.99-7.27,18.6-13.37,34.88-13.37,36.05,0,7.27-22.09,27.62-40.99,38.08-20.35,11.05-22.67,11.63-46.8,11.63-22.09,0-26.16-.87-31.69-6.4l-6.4-6.1,30.52-30.23c23.55-23.26,32.56-34.3,39.83-49.42,25.29-52.62,15.12-110.17-23.26-129.94-8.72-4.65-16.86-6.1-33.43-6.1-18.31,0-24.42,1.45-40.12,9.01-56.69,27.62-91.28,96.8-84.3,168.6l1.74,19.19-12.5,10.17c-31.98,25-57.27,31.69-94.48,23.84-26.16-5.23-44.19-14.83-56.4-29.65s-11.34-20.93,4.65-32.27c16.57-11.92,73.55-68.6,93.6-92.73,34.01-41.28,56.69-80.81,72.97-127.03,7.85-22.09,9.3-29.94,9.3-54.36.29-24.42-.87-30.81-7.27-44.48-7.85-17.73-18.02-28.2-34.3-36.63-13.66-6.98-51.16-7.27-66.28-.58h0ZM1309.99,171.02c5.23,5.81,4.94,16.28-.58,38.08-9.01,33.43-55.23,100.29-103.49,150.29-20.35,20.93-30.23,28.78-33.14,25.58-2.03-1.74,4.07-39.53,9.88-59.88,15.99-59.3,65.99-134.88,101.45-153.49,14.24-7.85,19.19-7.85,25.87-.58h0ZM1484.99,377.42c-.87,12.21-3.78,23.55-8.14,31.98-8.43,15.99-35.47,44.77-40.7,43.02-2.03-.58-4.94-5.23-6.1-9.88-7.27-25,15.41-76.16,39.24-89.24,9.01-4.65,9.59-4.65,13.08,0,2.91,3.78,3.49,11.05,2.62,24.13h0ZM1894.3,427.42c16.86,32.85,16.86,78.2,0,84.88-13.08,4.94-25.87.58-39.83-13.37-5.23-5.23-7.27-21.22-2.91-23.84,1.45-.87,8.72-13.95,16.28-29.36s15.12-27.62,17.44-27.62,6.4,4.36,9.01,9.3h0Z"/>
      <path d="M535.57,175.67c-6.69,5.81-19.19,21.22-27.91,34.3-12.79,18.9-63.37,89.53-73.26,102.03-4.36,5.52-45.93,62.79-50,69.19-2.33,3.49-11.05,15.41-19.19,26.74-8.14,11.05-21.22,29.36-29.07,40.7-32.27,46.51-72.67,97.97-86.05,110.17-35.47,31.98-60.47,43.02-96.51,43.02-40.12,0-61.34-11.92-84.59-47.09-7.27-11.05-16.28-21.51-19.77-23.55-7.85-4.07-32.56-1.45-41.86,4.65-9.88,6.4-9.88,30.23.29,46.51,3.78,6.4,8.43,14.53,10.17,18.31,4.65,10.47,25.58,31.69,42.15,42.73,18.9,12.21,44.77,21.22,74.42,25,38.08,5.23,83.43-4.65,120.06-26.16,27.03-15.41,78.2-67.44,104.07-104.94,2.91-4.07,13.37-18.02,23.26-31.4,10.17-13.08,26.45-35.47,36.63-49.42,35.76-49.42,63.37-88.08,80.52-112.79,9.59-13.66,25.29-36.05,34.88-49.42s23.26-33.14,30.52-43.6,18.6-26.74,25.58-36.34c22.38-31.4,14.53-49.13-22.67-49.13-18.02,0-20.06.58-31.69,10.47h0ZM1713.19,196.61c-13.37,7.27-20.93,19.77-20.93,34.88,0,29.65,34.3,48.26,59.59,32.56,13.37-8.14,18.9-18.02,18.9-32.56,0-30.52-30.81-49.13-57.56-34.88ZM737.03,239.63c-17.73,8.72-22.97,17.15-22.97,36.63,0,16.28.58,18.02,11.05,27.33,9.3,8.72,12.5,9.88,26.45,9.88,11.34,0,17.44-1.74,23.26-6.1,24.13-18.9,20.64-52.62-6.69-66.57-13.95-6.98-19.19-7.27-31.1-1.16Z"/>
    </g>
  </g>
</svg>