<?xml version="1.0" encoding="UTF-8"?>
<svg id="Layer_2" data-name="Layer 2" xmlns="http://www.w3.org/2000/svg" viewBox="0 0 346.39 112.54">
  <g id="Layer_1-2" data-name="Layer 1">
    <path d="M0,99.12c.77-1.29,1.72-3.96,3.49-3.96h16.45c.4,1.15-.44,3.96-1.5,3.96H3.99v2.97h14.46c3.24,0,3.44,9.91-1,9.91H2.49c-6.13-7.32,15.44-1.66,15.44-5.45-5.09-4.24-14.25,1.98-17.93-4.46v-2.97Z"/>
    <path d="M175.49,0c11.88,16.03-17.77,12.92-3.99,0h3.99Z"/>
    <path d="M159.88,71.03c-12.91-13.29,17.74-25.75,28.12-11.6,9.63,13.12-18.1,21.92-28.12,11.6ZM162.83,67.12c5.87,6.78,27.46,2.72,20.23-5.75-5.73-6.71-26.42-1.4-20.23,5.75Z"/>
    <path d="M174.49,32.71c-2.44-.3-1.58,0-2.09,1.39-1.42,3.87-4,22.12-8.68,12.19,1.77-3.6,6.69-25.83,9.29-26.46,1.9-.46,2.7,2.51,3.25,3.69,1.09,2.37,7.19,22.95,6.69,24.1l-2.86,1.89c-2.75-.42-5.19-13.69-5.6-16.8Z"/>
    <path d="M204.41,46.6c-1.27-1.05-20.79,12.92-17.86,3.55.41-1.31,21.2-11.58,24.33-12.53.92-.01,2.27.8,2.5,1.58.35,1.23-10.43,20.25-12.14,22.58-.75,1.02-1.77,2.98-3.3,2.65-5.17-1.12,5.34-15.35,6.47-17.83Z"/>
    <path d="M142.59,46.59c-.95.93,7.63,12.35,7.8,14.55.2,2.52-2.83,4.04-4.87,1.58-1.86-2.23-6.89-11.96-8.44-15.13s-3.85-6.24-3.46-9.93c1.4-1.39,18,7.19,20.6,8.75,1.48.89,6.71,3.65,6.31,5.6-1.19,5.75-16.37-6.97-17.94-5.43Z"/>
    <path d="M68.56,96.4c1.7,1.96,1.78,13.16-.4,14.71-15.52,2.45-21.93,3.37-19.16-14.82,1.01-1.6,17.86-1.86,19.56.1ZM51.85,108.05l14.02-.45.53-7.51c-1.59-2.1-11.53-.45-14.55-.97v8.93Z"/>
    <path d="M318.84,96.38c2.01,2,1.72,11.67,0,14.4-1.86,1.84-17.04,2.07-18.81-.16-5.12-17.66,4.55-17.44,18.81-14.23ZM317.09,99.12h-14.96v8.92h14.96v-8.92Z"/>
    <path d="M293.91,96.39c2.86,2.8-.45,5.76-.38,7.17.08,1.54,4.1,5.63.12,8.44l-1.92-6-12.89-.79c-2.5.81-1.52,4.67-1.64,6.8-3.39,3.92-4.21-14.92-2.05-16.41,3.76-.37,16.43-1.48,18.76.8ZM292.16,101.11c-.59-5.44-9.91-2.11-13.97-2.97v2.97h13.97Z"/>
    <path d="M270.22,95.16v2.95c-4.14,2.27-11.78-1.56-14.99.5-4.98,3.18,7.01,4.36,9.01,3.5v2.97s-9.98,0-9.98,0v2.97h15.96v3.96h-17.45c-2.45-3.81-2.43-13.15,0-16.85h17.45Z"/>
    <path d="M246.29,95.16v16.85c-3.78-2.17-1.35-8.31-2-11.89l-9.6,11.82c-3.11.53-7.9-12.89-10.33-10.82,1.21,2.26,1.91,9.05,0,10.41l-2-1v-15.36c6.65-.94,7.31,8.33,11.49,11.89,3.35.82,6.94-13.68,12.44-11.89Z"/>
    <path d="M343,108.04l.02-12.88c4.34-.26,3.38,10.53,3.03,13.42-1.28,10.65-14.83-7.91-18.98-9.46-.63,4.02,1.53,9.62-1.51,12.87-2.11,0-2.01-14.5-1.05-15.89,3.61-5.23,14.09,11.27,18.49,11.94Z"/>
    <path d="M44.87,98.13h-15.46c-2.73,2.36-1.13,6.65-1.5,9.91h15.46l1.49,1.5-1.49,2.46h-15.95c-3.34,0-3.3-15.21-1.56-16.42l16.51-.43,2.5,2.97Z"/>
    <path d="M189.45,98.13h-15.46c-2.73,2.36-1.13,6.65-1.5,9.91h16.95l-.44,3.03c-1.21,1.65-15.77,1.39-17.93-.13-3.03-2.12-1.15-10.98-1.43-14.65.9-1.42,14.04-1.46,16.36-1.18,1.89.22,3.77.47,3.44,3.02Z"/>
    <path d="M218.37,112c-3.73,1.26-4.25-3.2-5.18-3.75-.7-.41-11.75-.51-13.29-.23-.52.09-7.79,7.21-6.44,2.51.52-1.82,10.53-15.41,12.45-15.41,2.9,0,13.41,16,12.46,16.87ZM209.39,105.07c.28-2.77-1.85-4.93-3.48-6.91-6.06,6.81-6.76,7.56,3.48,6.91Z"/>
    <path d="M119.66,95.16v3.96s-9.54.93-9.54.93l-.94,11.97c-4.33-.08-1.88-10.41-2.48-12.9h-8.98s0-3.96,0-3.96h21.94Z"/>
    <path d="M94.23,95.16c5.34,5.94-7.83,3.31-8.48,3.96-.26,2.04.97,12.87-1.49,12.87-3.15-1.8-.58-11.96-1.49-12.87l-9.01-.46.53-3.5h19.94Z"/>
    <path d="M147.57,95.17c-3.97,6.06-11.92,8.7-11.48,16.85-3.37-.06-1.98-4.98-3.42-7.5s-7.16-6.07-9.03-8.87c4.44-3.22,9.47,7.86,12.32,7.37,3.97-2.58,6.14-8.66,11.6-7.85Z"/>
    <path d="M146.1,5.35c4.32.22,7.55,6.41,3.43,9.97-8.33,7.21-13.16-10.46-3.43-9.97Z"/>
    <path d="M201.15,5.11c6.62-1.76,10.33,8.55,3.55,10.55-9.11,2.7-9.22-9.05-3.55-10.55Z"/>
    <path d="M113.4,45.76c6.33-.98,8.25,8.98,3.6,10.57-9.43,3.23-11.29-9.39-3.6-10.57Z"/>
    <path d="M123.37,21.96c8.82-2.33,9.52,13.71-1.02,10.56-4.53-1.36-3.2-9.45,1.02-10.56Z"/>
    <path d="M222.02,22.02c3.91-.35,8.05,5.17,4.35,9.22-7.36,8.06-14.5-8.31-4.35-9.22Z"/>
    <path d="M228.58,46.83c6.66-6.66,14.4,10.39,3.26,9.77-5.27-.29-5.88-7.14-3.26-9.77Z"/>
  </g>
</svg>