<?xml version="1.0" encoding="UTF-8"?>
<svg id="Layer_2" data-name="Layer 2" xmlns="http://www.w3.org/2000/svg" viewBox="0 0 287.67 166.1">
  <g id="Layer_1-2" data-name="Layer 1">
    <g>
      <path d="M99.09,92.15c1.8-.62,4.37-.39,5.89.79l35.7,38.29c2.78,1.44,5.94.88,8.26-1.23l34.5-37.49c4.57-1.83,7.91-.06,7.99,4.92l-40.17,62.88c-1.94,2.21-4.11,5.78-7.33,5.78l-3.06-1.06-43.94-66.1c-1.2-1.96,0-6.04,2.16-6.79Z"/>
      <path d="M179.68,53.74l6.74,3.25c1.13-10.17,9.13-21.38,4.02-30.98l7.3-2.9c11.15,8.08-1.59,23.21-1.27,32.46.09,2.48,4.76,3.75,6.47,5.39,1.21-.07,7.97-20.67,8.27-22.73.5-3.47.11-5.32-1.78-8.23l7.51-2.72c11.48,9.77-3.75,26.47-4.61,38.61-4.25-1.89-11.93,3.1-14.25,2.89-2.55-.24-7.01-5.96-10.39-6.64s-5.41,2.58-8.54,1.71c-2.43-.67-7.85-8.71-12.72-7.87v-1.48c1.04-1.01,2.18-1.86,2.74-3.27,1.32-3.37,4.74-30.35,4.04-33.52-.2-.9-2.21-2.37-1.78-2.71,3.67.25,11.21,2.51,11.81,6.7.91,6.36-4.42,21.44-4.46,29.01,0,1.13.12,2.15.91,3.03Z"/>
      <path d="M20.69,50.25c-4.59,9.83,6.9,17.44,7.49,27.49.23,3.81-3.41,10.99-.34,13.35,13.28,4.19,19.76-6.57,27.11-15.08,3.54.58,2.54,3.17,1.7,5.71C44.26,119.12-11.79,98.89,2.24,59.31c5.67-16,15.92-16.67,29.99-20.01,1.67-.39,3.8-2.06,4.88-2.16,4.4-.42,1.69,9.46-2.39,10.64s-9.89-1.14-14.03,2.46ZM21.41,87.98c3.48-2.4-7.06-18.28-7.76-21.71-.83-4.03.98-6.8.67-10.61l-2.38-1.65c-10.52,9.96-5.43,32.2,9.47,33.98Z"/>
      <path d="M259.43,91.99c12.29-1.1,18.88-9.87,19.14-21.85,11.6-4.41,9.96,4.34,6.73,12.23-2.77,6.74-13.48,16.77-20.83,18.22-3.25.64-6.1-.85-7.39-.48-1.17.33-2.78,4-4.69,5.36-8.98,6.4-10.52-3.42-17.96-5.96,5.52-7.41,9.48-3.22,14.98,1.49,1.61-5.32.44-9.8,2.24-15.27s12.49-18.62,11.83-22.13c-.17-.91-3.14-.04-2.06-2.59l9.99-1.55c9.82,6.32-15.34,29.1-11.99,32.54Z"/>
      <path d="M243.61,80.82c.45.79,3.62.67,2.81,3.17l-11.35,1.92c-2.86-.9-1.28-7.51-1.65-9.92l-13.32,1.88c-9.97-11.66,2.49-21.55,13.85-24.54l6.98,6.64c7.88-9.09.03-12.63-6.01-18.98l.99-1.97c3.21,2.12,7.22,0,10.5,1.49,2.33,1.06,8.15,8.74,8.61,11.43,1.03,6.11-13.69,24.94-11.4,28.88ZM232.93,57.02c-5.22,4.08-8.81,11.13-3.93,16.86,6.96-.1,7.48-5.26,10.16-10.4l-6.23-6.46Z"/>
      <path d="M89.42,61c-5.31,20.02-11.32,5.27-14.47,5.99l-7.2,10.9c-12.79-.94-14.38-11.32-11.03-22.11,2.26-7.28,5.08-4.93,11.7-6.28l-4.99-8.03-13.5.53-.5-1.99c3.71-.15,3.71-4.53,6.74-5.78,20.27-8.35,20.61,14.44,27.75,26.81l5.5-.05ZM62.07,54.14l-1.21.78c-2.73,3.83,4.42,14.33,9.61,13.63,5.57-6.26.71-17.47-8.4-14.42Z"/>
      <path d="M158.42,53c.48.46,5.11-1.11,4,1.48l-8.51,7.32-6.06-7.78c-3.55-.82-9.24,12.81-16.27,3.33-6.23-8.39,2.61-30.33,14.4-22.35l2.33-1.58c.21-11.59-6.7-8.39-13.61-12.18-1.16-.64-1.68.04-1.28-2.23,3.96.82,6.91-3.11,10.41-2.97,2.34.09,11.22,3.56,12.5,5.57,2.53,3.98,1.24,25.35,2.09,31.41ZM138.55,37.12c-5.99,7.34,5.49,23.11,8.67,12.17,2.17-7.49.07-13.63-8.67-12.17Z"/>
      <path d="M118.42,0l-1.96,5.55,8.96,57.44c-4.92-2.37-9.29-4.84-14.99-5.01,1.75-2.36,2.44-4.16,2.42-7.12-.14-15.88-14.7-43.71,5.58-50.86Z"/>
      <path d="M106.42,65.99l-14.99-3c.07-2.56,1.82-3.08,1.59-6.02-.65-8.22-7.28-21.92-9.3-30.77-2.2-9.65-1.97-16.7,7.22-22.2l-1.08,8.03,16.57,53.96Z"/>
    </g>
  </g>
</svg>